<mxfile host="app.diagrams.net" modified="2024-01-12T10:41:19.577Z" agent="Mozilla/5.0 (Windows NT 10.0; Win64; x64) AppleWebKit/537.36 (KHTML, like Gecko) Chrome/120.0.0.0 Safari/537.36 Edg/120.0.0.0" etag="IXucQmyDALcwkP95yHhL" version="22.1.18" type="github">
  <diagram name="Page-1" id="2YBvvXClWsGukQMizWep">
    <mxGraphModel dx="1963" dy="574" grid="1" gridSize="10" guides="1" tooltips="1" connect="1" arrows="1" fold="1" page="1" pageScale="1" pageWidth="850" pageHeight="1100" math="0" shadow="0">
      <root>
        <mxCell id="0" />
        <mxCell id="1" parent="0" />
        <mxCell id="aM9ryv3xv72pqoxQDRHE-1" value="&lt;font style=&quot;font-size: 12px;&quot;&gt;:Report&lt;/font&gt;" style="shape=umlLifeline;perimeter=lifelinePerimeter;whiteSpace=wrap;html=1;container=0;dropTarget=0;collapsible=0;recursiveResize=0;outlineConnect=0;portConstraint=eastwest;newEdgeStyle={&quot;edgeStyle&quot;:&quot;elbowEdgeStyle&quot;,&quot;elbow&quot;:&quot;vertical&quot;,&quot;curved&quot;:0,&quot;rounded&quot;:0};" parent="1" vertex="1">
          <mxGeometry x="270" y="50" width="100" height="830" as="geometry" />
        </mxCell>
        <mxCell id="0F8jDRwpQhIUNMn6P4Vn-10" value="" style="html=1;points=[[0,0,0,0,5],[0,1,0,0,-5],[1,0,0,0,5],[1,1,0,0,-5]];perimeter=orthogonalPerimeter;outlineConnect=0;targetShapes=umlLifeline;portConstraint=eastwest;newEdgeStyle={&quot;curved&quot;:0,&quot;rounded&quot;:0};" parent="aM9ryv3xv72pqoxQDRHE-1" vertex="1">
          <mxGeometry x="45" y="90" width="10" height="80" as="geometry" />
        </mxCell>
        <mxCell id="0F8jDRwpQhIUNMn6P4Vn-77" value="" style="html=1;points=[];perimeter=orthogonalPerimeter;outlineConnect=0;targetShapes=umlLifeline;portConstraint=eastwest;newEdgeStyle={&quot;edgeStyle&quot;:&quot;elbowEdgeStyle&quot;,&quot;elbow&quot;:&quot;vertical&quot;,&quot;curved&quot;:0,&quot;rounded&quot;:0};" parent="aM9ryv3xv72pqoxQDRHE-1" vertex="1">
          <mxGeometry x="45" y="190" width="10" height="60" as="geometry" />
        </mxCell>
        <mxCell id="F1dbVTKffEX6imZ8MOaH-2" value="" style="html=1;points=[];perimeter=orthogonalPerimeter;outlineConnect=0;targetShapes=umlLifeline;portConstraint=eastwest;newEdgeStyle={&quot;edgeStyle&quot;:&quot;elbowEdgeStyle&quot;,&quot;elbow&quot;:&quot;vertical&quot;,&quot;curved&quot;:0,&quot;rounded&quot;:0};" parent="aM9ryv3xv72pqoxQDRHE-1" vertex="1">
          <mxGeometry x="44" y="270" width="10" height="290" as="geometry" />
        </mxCell>
        <mxCell id="0F8jDRwpQhIUNMn6P4Vn-37" value="" style="html=1;points=[[0,0,0,0,5],[0,1,0,0,-5],[1,0,0,0,5],[1,1,0,0,-5]];perimeter=orthogonalPerimeter;outlineConnect=0;targetShapes=umlLifeline;portConstraint=eastwest;newEdgeStyle={&quot;curved&quot;:0,&quot;rounded&quot;:0};" parent="aM9ryv3xv72pqoxQDRHE-1" vertex="1">
          <mxGeometry x="45" y="582" width="10" height="68" as="geometry" />
        </mxCell>
        <mxCell id="tyZudettzISzWpEMX1_I-2" value="" style="html=1;points=[[0,0,0,0,5],[0,1,0,0,-5],[1,0,0,0,5],[1,1,0,0,-5]];perimeter=orthogonalPerimeter;outlineConnect=0;targetShapes=umlLifeline;portConstraint=eastwest;newEdgeStyle={&quot;curved&quot;:0,&quot;rounded&quot;:0};" vertex="1" parent="aM9ryv3xv72pqoxQDRHE-1">
          <mxGeometry x="44" y="685" width="10" height="80" as="geometry" />
        </mxCell>
        <mxCell id="aM9ryv3xv72pqoxQDRHE-5" value="&lt;font style=&quot;font-size: 12px;&quot;&gt;:Subsystem&lt;/font&gt;" style="shape=umlLifeline;perimeter=lifelinePerimeter;whiteSpace=wrap;html=1;container=0;dropTarget=0;collapsible=0;recursiveResize=0;outlineConnect=0;portConstraint=eastwest;newEdgeStyle={&quot;edgeStyle&quot;:&quot;elbowEdgeStyle&quot;,&quot;elbow&quot;:&quot;vertical&quot;,&quot;curved&quot;:0,&quot;rounded&quot;:0};" parent="1" vertex="1">
          <mxGeometry x="450" y="50" width="100" height="830" as="geometry" />
        </mxCell>
        <mxCell id="ORx9DDc8K5r6ulXrz52M-3" value="" style="shape=umlLifeline;perimeter=lifelinePerimeter;whiteSpace=wrap;html=1;container=1;dropTarget=0;collapsible=0;recursiveResize=0;outlineConnect=0;portConstraint=eastwest;newEdgeStyle={&quot;curved&quot;:0,&quot;rounded&quot;:0};participant=umlActor;" parent="1" vertex="1">
          <mxGeometry x="30" y="50" width="20" height="830" as="geometry" />
        </mxCell>
        <mxCell id="aM9ryv3xv72pqoxQDRHE-2" value="" style="html=1;points=[];perimeter=orthogonalPerimeter;outlineConnect=0;targetShapes=umlLifeline;portConstraint=eastwest;newEdgeStyle={&quot;edgeStyle&quot;:&quot;elbowEdgeStyle&quot;,&quot;elbow&quot;:&quot;vertical&quot;,&quot;curved&quot;:0,&quot;rounded&quot;:0};" parent="ORx9DDc8K5r6ulXrz52M-3" vertex="1">
          <mxGeometry x="5" y="65" width="10" height="25" as="geometry" />
        </mxCell>
        <mxCell id="0F8jDRwpQhIUNMn6P4Vn-24" value="" style="html=1;points=[];perimeter=orthogonalPerimeter;outlineConnect=0;targetShapes=umlLifeline;portConstraint=eastwest;newEdgeStyle={&quot;edgeStyle&quot;:&quot;elbowEdgeStyle&quot;,&quot;elbow&quot;:&quot;vertical&quot;,&quot;curved&quot;:0,&quot;rounded&quot;:0};" parent="ORx9DDc8K5r6ulXrz52M-3" vertex="1">
          <mxGeometry x="5" y="150" width="10" height="100" as="geometry" />
        </mxCell>
        <mxCell id="aM9ryv3xv72pqoxQDRHE-3" value="" style="html=1;verticalAlign=bottom;startArrow=oval;endArrow=block;startSize=8;edgeStyle=elbowEdgeStyle;elbow=vertical;curved=0;rounded=0;" parent="1" edge="1">
          <mxGeometry x="0.0008" relative="1" as="geometry">
            <mxPoint x="-30" y="125.13999999999999" as="sourcePoint" />
            <mxPoint x="35" y="125.13999999999999" as="targetPoint" />
            <mxPoint as="offset" />
          </mxGeometry>
        </mxCell>
        <mxCell id="0F8jDRwpQhIUNMn6P4Vn-1" value=":Interface" style="shape=umlLifeline;perimeter=lifelinePerimeter;whiteSpace=wrap;html=1;container=1;dropTarget=0;collapsible=0;recursiveResize=0;outlineConnect=0;portConstraint=eastwest;newEdgeStyle={&quot;curved&quot;:0,&quot;rounded&quot;:0};" parent="1" vertex="1">
          <mxGeometry x="110" y="50" width="100" height="830" as="geometry" />
        </mxCell>
        <mxCell id="0F8jDRwpQhIUNMn6P4Vn-4" value="" style="html=1;points=[];perimeter=orthogonalPerimeter;outlineConnect=0;targetShapes=umlLifeline;portConstraint=eastwest;newEdgeStyle={&quot;edgeStyle&quot;:&quot;elbowEdgeStyle&quot;,&quot;elbow&quot;:&quot;vertical&quot;,&quot;curved&quot;:0,&quot;rounded&quot;:0};" parent="0F8jDRwpQhIUNMn6P4Vn-1" vertex="1">
          <mxGeometry x="45" y="150" width="10" height="100" as="geometry" />
        </mxCell>
        <mxCell id="0F8jDRwpQhIUNMn6P4Vn-27" value="" style="html=1;points=[];perimeter=orthogonalPerimeter;outlineConnect=0;targetShapes=umlLifeline;portConstraint=eastwest;newEdgeStyle={&quot;edgeStyle&quot;:&quot;elbowEdgeStyle&quot;,&quot;elbow&quot;:&quot;vertical&quot;,&quot;curved&quot;:0,&quot;rounded&quot;:0};" parent="0F8jDRwpQhIUNMn6P4Vn-1" vertex="1">
          <mxGeometry x="45" y="70" width="10" height="40" as="geometry" />
        </mxCell>
        <mxCell id="F1dbVTKffEX6imZ8MOaH-6" value="" style="html=1;points=[];perimeter=orthogonalPerimeter;outlineConnect=0;targetShapes=umlLifeline;portConstraint=eastwest;newEdgeStyle={&quot;edgeStyle&quot;:&quot;elbowEdgeStyle&quot;,&quot;elbow&quot;:&quot;vertical&quot;,&quot;curved&quot;:0,&quot;rounded&quot;:0};" parent="0F8jDRwpQhIUNMn6P4Vn-1" vertex="1">
          <mxGeometry x="45" y="620" width="10" height="40" as="geometry" />
        </mxCell>
        <mxCell id="0F8jDRwpQhIUNMn6P4Vn-3" value="点击生成报告" style="html=1;verticalAlign=bottom;endArrow=block;curved=0;rounded=0;" parent="1" target="0F8jDRwpQhIUNMn6P4Vn-1" edge="1">
          <mxGeometry x="-0.0002" width="80" relative="1" as="geometry">
            <mxPoint x="45" y="125" as="sourcePoint" />
            <mxPoint x="140" y="125" as="targetPoint" />
            <mxPoint as="offset" />
          </mxGeometry>
        </mxCell>
        <mxCell id="0F8jDRwpQhIUNMn6P4Vn-5" value=":DataAccess" style="shape=umlLifeline;perimeter=lifelinePerimeter;whiteSpace=wrap;html=1;container=1;dropTarget=0;collapsible=0;recursiveResize=0;outlineConnect=0;portConstraint=eastwest;newEdgeStyle={&quot;curved&quot;:0,&quot;rounded&quot;:0};" parent="1" vertex="1">
          <mxGeometry x="620" y="50" width="100" height="830" as="geometry" />
        </mxCell>
        <mxCell id="0F8jDRwpQhIUNMn6P4Vn-93" value="" style="html=1;points=[];perimeter=orthogonalPerimeter;outlineConnect=0;targetShapes=umlLifeline;portConstraint=eastwest;newEdgeStyle={&quot;edgeStyle&quot;:&quot;elbowEdgeStyle&quot;,&quot;elbow&quot;:&quot;vertical&quot;,&quot;curved&quot;:0,&quot;rounded&quot;:0};" parent="0F8jDRwpQhIUNMn6P4Vn-5" vertex="1">
          <mxGeometry x="43" y="343" width="10" height="60" as="geometry" />
        </mxCell>
        <mxCell id="0F8jDRwpQhIUNMn6P4Vn-6" value="创建报告" style="html=1;verticalAlign=bottom;endArrow=block;curved=0;rounded=0;" parent="1" source="0F8jDRwpQhIUNMn6P4Vn-27" edge="1">
          <mxGeometry x="0.0033" width="80" relative="1" as="geometry">
            <mxPoint x="170" y="150" as="sourcePoint" />
            <mxPoint x="314.5" y="150" as="targetPoint" />
            <mxPoint as="offset" />
          </mxGeometry>
        </mxCell>
        <mxCell id="0F8jDRwpQhIUNMn6P4Vn-11" value="&lt;font style=&quot;font-size: 11px;&quot;&gt;未初始化&lt;/font&gt;" style="text;html=1;align=center;verticalAlign=middle;resizable=0;points=[];autosize=1;strokeColor=none;fillColor=none;" parent="1" vertex="1">
          <mxGeometry x="285" y="160" width="70" height="30" as="geometry" />
        </mxCell>
        <mxCell id="0F8jDRwpQhIUNMn6P4Vn-13" value="&lt;font style=&quot;font-size: 11px;&quot;&gt;等待时间范围和类型&lt;/font&gt;" style="text;html=1;align=center;verticalAlign=middle;resizable=0;points=[];autosize=1;strokeColor=none;fillColor=none;" parent="1" vertex="1">
          <mxGeometry x="180" y="180" width="120" height="30" as="geometry" />
        </mxCell>
        <mxCell id="0F8jDRwpQhIUNMn6P4Vn-14" value="" style="html=1;verticalAlign=bottom;endArrow=block;curved=0;rounded=0;" parent="1" edge="1">
          <mxGeometry width="80" relative="1" as="geometry">
            <mxPoint x="315" y="206" as="sourcePoint" />
            <mxPoint x="165" y="205.43" as="targetPoint" />
          </mxGeometry>
        </mxCell>
        <mxCell id="0F8jDRwpQhIUNMn6P4Vn-16" value="&lt;font style=&quot;font-size: 11px;&quot;&gt;提示输入时间和类型&lt;/font&gt;" style="text;html=1;align=center;verticalAlign=middle;resizable=0;points=[];autosize=1;strokeColor=none;fillColor=none;" parent="1" vertex="1">
          <mxGeometry x="43" y="194" width="120" height="30" as="geometry" />
        </mxCell>
        <mxCell id="0F8jDRwpQhIUNMn6P4Vn-22" value="输入时间和类型" style="html=1;verticalAlign=bottom;endArrow=open;dashed=1;endSize=8;curved=0;rounded=0;" parent="1" target="0F8jDRwpQhIUNMn6P4Vn-1" edge="1">
          <mxGeometry x="-0.0002" relative="1" as="geometry">
            <mxPoint x="45" y="260" as="sourcePoint" />
            <mxPoint x="125" y="260" as="targetPoint" />
            <mxPoint as="offset" />
          </mxGeometry>
        </mxCell>
        <mxCell id="0F8jDRwpQhIUNMn6P4Vn-23" value="获得时间和类型" style="html=1;verticalAlign=bottom;endArrow=open;dashed=1;endSize=8;curved=0;rounded=0;" parent="1" target="aM9ryv3xv72pqoxQDRHE-1" edge="1">
          <mxGeometry x="-0.0001" relative="1" as="geometry">
            <mxPoint x="165" y="270" as="sourcePoint" />
            <mxPoint x="280" y="270" as="targetPoint" />
            <mxPoint as="offset" />
          </mxGeometry>
        </mxCell>
        <mxCell id="0F8jDRwpQhIUNMn6P4Vn-25" value="" style="html=1;verticalAlign=bottom;endArrow=block;curved=0;rounded=0;exitX=0.961;exitY=1;exitDx=0;exitDy=0;exitPerimeter=0;" parent="1" source="0F8jDRwpQhIUNMn6P4Vn-16" edge="1">
          <mxGeometry width="80" relative="1" as="geometry">
            <mxPoint x="150" y="224" as="sourcePoint" />
            <mxPoint x="45" y="224" as="targetPoint" />
          </mxGeometry>
        </mxCell>
        <mxCell id="0F8jDRwpQhIUNMn6P4Vn-28" value="" style="html=1;verticalAlign=bottom;endArrow=block;curved=0;rounded=0;" parent="1" source="0F8jDRwpQhIUNMn6P4Vn-33" edge="1">
          <mxGeometry x="0.0039" width="80" relative="1" as="geometry">
            <mxPoint x="325" y="380" as="sourcePoint" />
            <mxPoint x="499.5" y="380" as="targetPoint" />
            <mxPoint as="offset" />
          </mxGeometry>
        </mxCell>
        <mxCell id="0F8jDRwpQhIUNMn6P4Vn-34" value="&lt;font style=&quot;font-size: 11px;&quot;&gt;生成中&lt;span style=&quot;white-space: pre;&quot;&gt;&#x9;&lt;/span&gt;&lt;/font&gt;" style="text;html=1;align=center;verticalAlign=middle;resizable=0;points=[];autosize=1;strokeColor=none;fillColor=none;" parent="1" vertex="1">
          <mxGeometry x="285" y="330" width="70" height="30" as="geometry" />
        </mxCell>
        <mxCell id="0F8jDRwpQhIUNMn6P4Vn-38" value="进行数据分析" style="html=1;align=left;spacingLeft=2;endArrow=block;rounded=0;edgeStyle=orthogonalEdgeStyle;curved=0;rounded=0;" parent="1" edge="1">
          <mxGeometry relative="1" as="geometry">
            <mxPoint x="324.97" y="510" as="sourcePoint" />
            <Array as="points">
              <mxPoint x="354.97" y="509.97" />
              <mxPoint x="354.97" y="569.97" />
            </Array>
            <mxPoint x="324.97" y="569.97" as="targetPoint" />
            <mxPoint as="offset" />
          </mxGeometry>
        </mxCell>
        <mxCell id="0F8jDRwpQhIUNMn6P4Vn-54" value="得到分析结果" style="html=1;align=left;spacingLeft=2;endArrow=block;rounded=0;edgeStyle=orthogonalEdgeStyle;curved=0;rounded=0;" parent="1" edge="1">
          <mxGeometry relative="1" as="geometry">
            <mxPoint x="324.97" y="595" as="sourcePoint" />
            <Array as="points">
              <mxPoint x="354.97" y="594.97" />
              <mxPoint x="354.97" y="654.97" />
            </Array>
            <mxPoint x="324.97" y="654.97" as="targetPoint" />
            <mxPoint as="offset" />
          </mxGeometry>
        </mxCell>
        <mxCell id="0F8jDRwpQhIUNMn6P4Vn-61" value="&lt;font style=&quot;font-size: 11px;&quot;&gt;返回分析结果&lt;/font&gt;" style="text;html=1;align=center;verticalAlign=middle;resizable=0;points=[];autosize=1;strokeColor=none;fillColor=none;" parent="1" vertex="1">
          <mxGeometry x="192.07" y="660" width="90" height="30" as="geometry" />
        </mxCell>
        <mxCell id="0F8jDRwpQhIUNMn6P4Vn-63" value="" style="html=1;verticalAlign=bottom;endArrow=open;dashed=1;endSize=8;curved=0;rounded=0;" parent="1" source="0F8jDRwpQhIUNMn6P4Vn-37" edge="1">
          <mxGeometry x="-0.0045" relative="1" as="geometry">
            <mxPoint x="310" y="680" as="sourcePoint" />
            <mxPoint x="164.99857142857132" y="685" as="targetPoint" />
            <mxPoint as="offset" />
          </mxGeometry>
        </mxCell>
        <mxCell id="0F8jDRwpQhIUNMn6P4Vn-66" value="信息检查合法" style="html=1;align=left;spacingLeft=2;endArrow=block;rounded=0;edgeStyle=orthogonalEdgeStyle;curved=0;rounded=0;" parent="1" edge="1">
          <mxGeometry x="-0.0005" relative="1" as="geometry">
            <mxPoint x="324.97" y="269.99999999999994" as="sourcePoint" />
            <Array as="points">
              <mxPoint x="354.97" y="269.96999999999997" />
              <mxPoint x="354.97" y="329.96999999999997" />
            </Array>
            <mxPoint x="324.97" y="329.96999999999997" as="targetPoint" />
            <mxPoint as="offset" />
          </mxGeometry>
        </mxCell>
        <mxCell id="0F8jDRwpQhIUNMn6P4Vn-79" value="&lt;font style=&quot;font-size: 11px;&quot;&gt;创建中&lt;/font&gt;" style="text;html=1;align=center;verticalAlign=middle;resizable=0;points=[];autosize=1;strokeColor=none;fillColor=none;" parent="1" vertex="1">
          <mxGeometry x="290" y="240" width="60" height="30" as="geometry" />
        </mxCell>
        <mxCell id="0F8jDRwpQhIUNMn6P4Vn-86" value="&lt;font style=&quot;font-size: 11px;&quot;&gt;返回历史信息&lt;/font&gt;" style="text;html=1;align=center;verticalAlign=middle;resizable=0;points=[];autosize=1;strokeColor=none;fillColor=none;" parent="1" vertex="1">
          <mxGeometry x="364.54" y="441" width="90" height="30" as="geometry" />
        </mxCell>
        <mxCell id="0F8jDRwpQhIUNMn6P4Vn-87" value="" style="html=1;verticalAlign=bottom;endArrow=open;dashed=1;endSize=8;curved=0;rounded=0;" parent="1" edge="1">
          <mxGeometry x="-0.0045" relative="1" as="geometry">
            <mxPoint x="493.54" y="466" as="sourcePoint" />
            <mxPoint x="320.46857142857135" y="466" as="targetPoint" />
            <mxPoint as="offset" />
          </mxGeometry>
        </mxCell>
        <mxCell id="0F8jDRwpQhIUNMn6P4Vn-96" value="获取历史信息" style="html=1;verticalAlign=bottom;endArrow=block;curved=0;rounded=0;" parent="1" source="0F8jDRwpQhIUNMn6P4Vn-33" edge="1">
          <mxGeometry width="80" relative="1" as="geometry">
            <mxPoint x="324" y="402" as="sourcePoint" />
            <mxPoint x="663.5" y="402" as="targetPoint" />
          </mxGeometry>
        </mxCell>
        <mxCell id="0F8jDRwpQhIUNMn6P4Vn-97" value="返回历史信息" style="html=1;verticalAlign=bottom;endArrow=open;dashed=1;endSize=8;curved=0;rounded=0;" parent="1" edge="1">
          <mxGeometry relative="1" as="geometry">
            <mxPoint x="663" y="438.9999999999999" as="sourcePoint" />
            <mxPoint x="505" y="438.9999999999999" as="targetPoint" />
            <mxPoint as="offset" />
          </mxGeometry>
        </mxCell>
        <mxCell id="F1dbVTKffEX6imZ8MOaH-3" value="" style="html=1;verticalAlign=bottom;endArrow=block;curved=0;rounded=0;" parent="1" target="0F8jDRwpQhIUNMn6P4Vn-33" edge="1">
          <mxGeometry x="0.0039" width="80" relative="1" as="geometry">
            <mxPoint x="325" y="380" as="sourcePoint" />
            <mxPoint x="499.5" y="380" as="targetPoint" />
            <mxPoint as="offset" />
          </mxGeometry>
        </mxCell>
        <mxCell id="0F8jDRwpQhIUNMn6P4Vn-33" value="" style="html=1;points=[];perimeter=orthogonalPerimeter;outlineConnect=0;targetShapes=umlLifeline;portConstraint=eastwest;newEdgeStyle={&quot;edgeStyle&quot;:&quot;elbowEdgeStyle&quot;,&quot;elbow&quot;:&quot;vertical&quot;,&quot;curved&quot;:0,&quot;rounded&quot;:0};" parent="1" vertex="1">
          <mxGeometry x="495" y="370" width="10" height="120" as="geometry" />
        </mxCell>
        <mxCell id="F1dbVTKffEX6imZ8MOaH-4" value="&lt;font style=&quot;font-size: 11px;&quot;&gt;筛选历史信息&lt;/font&gt;" style="text;html=1;align=center;verticalAlign=middle;resizable=0;points=[];autosize=1;strokeColor=none;fillColor=none;" parent="1" vertex="1">
          <mxGeometry x="362" y="356" width="90" height="30" as="geometry" />
        </mxCell>
        <mxCell id="F1dbVTKffEX6imZ8MOaH-5" value="&lt;span style=&quot;font-size: 11px;&quot;&gt;已生成&lt;/span&gt;" style="text;html=1;align=center;verticalAlign=middle;resizable=0;points=[];autosize=1;strokeColor=none;fillColor=none;" parent="1" vertex="1">
          <mxGeometry x="290" y="630" width="60" height="30" as="geometry" />
        </mxCell>
        <mxCell id="tyZudettzISzWpEMX1_I-4" value="&lt;span style=&quot;font-size: 11px;&quot;&gt;已下载&lt;/span&gt;" style="text;html=1;align=center;verticalAlign=middle;resizable=0;points=[];autosize=1;strokeColor=none;fillColor=none;" vertex="1" parent="1">
          <mxGeometry x="290" y="735" width="60" height="30" as="geometry" />
        </mxCell>
        <mxCell id="tyZudettzISzWpEMX1_I-5" value="" style="html=1;verticalAlign=bottom;endArrow=open;dashed=1;endSize=8;curved=0;rounded=0;" edge="1" parent="1">
          <mxGeometry x="-0.0045" relative="1" as="geometry">
            <mxPoint x="315" y="805" as="sourcePoint" />
            <mxPoint x="164.99857142857132" y="805" as="targetPoint" />
            <mxPoint as="offset" />
          </mxGeometry>
        </mxCell>
        <mxCell id="tyZudettzISzWpEMX1_I-6" value="" style="html=1;points=[];perimeter=orthogonalPerimeter;outlineConnect=0;targetShapes=umlLifeline;portConstraint=eastwest;newEdgeStyle={&quot;edgeStyle&quot;:&quot;elbowEdgeStyle&quot;,&quot;elbow&quot;:&quot;vertical&quot;,&quot;curved&quot;:0,&quot;rounded&quot;:0};" vertex="1" parent="1">
          <mxGeometry x="36" y="735" width="10" height="25" as="geometry" />
        </mxCell>
        <mxCell id="tyZudettzISzWpEMX1_I-7" value="" style="html=1;points=[];perimeter=orthogonalPerimeter;outlineConnect=0;targetShapes=umlLifeline;portConstraint=eastwest;newEdgeStyle={&quot;edgeStyle&quot;:&quot;elbowEdgeStyle&quot;,&quot;elbow&quot;:&quot;vertical&quot;,&quot;curved&quot;:0,&quot;rounded&quot;:0};" vertex="1" parent="1">
          <mxGeometry x="156" y="740" width="10" height="80" as="geometry" />
        </mxCell>
        <mxCell id="tyZudettzISzWpEMX1_I-8" value="点击下载报告" style="html=1;verticalAlign=bottom;endArrow=block;curved=0;rounded=0;" edge="1" parent="1">
          <mxGeometry x="-0.0002" width="80" relative="1" as="geometry">
            <mxPoint x="46" y="745" as="sourcePoint" />
            <mxPoint x="161" y="745" as="targetPoint" />
            <mxPoint as="offset" />
          </mxGeometry>
        </mxCell>
        <mxCell id="tyZudettzISzWpEMX1_I-9" value="下载报告" style="html=1;verticalAlign=bottom;endArrow=block;curved=0;rounded=0;" edge="1" parent="1" source="tyZudettzISzWpEMX1_I-7">
          <mxGeometry x="0.0033" width="80" relative="1" as="geometry">
            <mxPoint x="171" y="770" as="sourcePoint" />
            <mxPoint x="315.5" y="770" as="targetPoint" />
            <mxPoint as="offset" />
          </mxGeometry>
        </mxCell>
        <mxCell id="tyZudettzISzWpEMX1_I-11" value="&lt;font style=&quot;font-size: 11px;&quot;&gt;提示下载成功&lt;/font&gt;" style="text;html=1;align=center;verticalAlign=middle;resizable=0;points=[];autosize=1;strokeColor=none;fillColor=none;" vertex="1" parent="1">
          <mxGeometry x="199" y="781" width="90" height="30" as="geometry" />
        </mxCell>
      </root>
    </mxGraphModel>
  </diagram>
</mxfile>
